# AST/ASF file generated using VICON BodyLanguage
# -----------------------------------------------
:version 1.10
:name VICON
:units
  mass 1.0
  length 0.45
  angle deg
:documentation
   .ast/.asf automatically generated from VICON data using
   VICON BodyBuilder and BodyLanguage model FoxedUp or BRILLIANT.MOD
:root
   order TX TY TZ RX RY RZ
   axis XYZ
   position 0 0 0  
   orientation 0 0 0 
:bonedata
  begin
     id 1 
     name lhipjoint
     direction 0.588788 -0.725889 0.355548 
     length 2.37778 
     axis 0 0 0  XYZ
  end
  begin
     id 2 
     name lfemur
     direction 0.34202 -0.939693 0  
     length 6.86393  
     axis 0 0 20  XYZ
    dof rx ry rz
    limits (-160.0 20.0)
           (-70.0 70.0)
           (-60.0 70.0)
  end
  begin
     id 3 
     name ltibia
     direction 0.34202 -0.939693 0   
     length 7.32851   
     axis 0 0 20   XYZ
    dof rx
    limits (-10.0 170.0)
  end
  begin
     id 4 
     name lfoot
     direction 0.0626533 -0.172138 0.983078   
     length 1.98929   
     axis -90 7.62852e-016 20   XYZ
    dof rx rz
    limits (-45.0 90.0)
           (-70.0 20.0)
  end
  begin
     id 5 
     name ltoes
     direction 1.53647e-011 -4.21734e-011 1   
     length 1.00479   
     axis -90 7.62852e-016 20   XYZ
    dof rx
    limits (-90.0 20.0)
  end
  begin
     id 6 
     name rhipjoint
     direction -0.59141 -0.724168 0.354705   
     length 2.38343  
     axis 0 0 0  XYZ 
  end
  begin
     id 7 
     name rfemur
     direction -0.34202 -0.939693 0   
     length 6.95589   
     axis 0 0 -20   XYZ
    dof rx ry rz
    limits (-160.0 20.0)
           (-70.0 70.0)
           (-70.0 60.0)
  end
  begin
     id 8 
     name rtibia
     direction -0.34202 -0.939693 0   
     length 7.32327   
     axis 0 0 -20   XYZ
    dof rx
    limits (-10.0 170.0)
 end
 begin
     id 9 
     name rfoot
     direction -0.0660461 -0.18146 0.981178   
     length 1.85272  
     axis -90 -7.62852e-016 -20   XYZ
    dof rx rz
    limits (-45.0 90.0)
           (-20.0 70.0)
  end
  begin
     id 10 
     name rtoes
     direction -1.53586e-011 -4.21988e-011 1   
     length 0.93746   
     axis -90 -7.62852e-016 -20   XYZ
    dof rx
    limits (-90.0 20.0)
  end
  begin
     id 11 
     name lowerback
     direction -0.0107982 0.991059 0.13299   
     length 1.98691   
     axis 0 0 0   XYZ
    dof rx ry rz
    limits (-20.0 45.0)
           (-30.0 30.0)
           (-30.0 30.0)
  end
  begin
     id 12 
     name upperback
     direction 0.0076296 0.999916 0.0104576   
     length 1.99501   
     axis 0 0 0   XYZ
    dof rx ry rz
    limits (-20.0 45.0)
           (-30.0 30.0)
           (-30.0 30.0)
  end
  begin
     id 13 
     name thorax
     direction 0.01176 0.998615 -0.0512909   
     length 2.03144   
     axis 0 0 0   XYZ
    dof rx ry rz
    limits (-20.0 45.0)
           (-30.0 30.0)
           (-30.0 30.0)
  end
  begin
     id 14 
     name lowerneck
     direction -0.0171909 0.999644 0.0204011   
     length 1.71818   
     axis 0 0 0   XYZ
    dof rx ry rz
    limits (-20.0 45.0)
           (-30.0 30.0)
           (-30.0 30.0)
  end
  begin
     id 15 
     name upperneck
     direction 0.0250902 0.997482 -0.0663316   
     length 1.66199   
     axis 0 0 0   XYZ
    dof rx ry rz
    limits (-20.0 45.0)
           (-30.0 30.0)
           (-30.0 30.0)
  end
  begin
     id 16
     name head
     direction 0.00881535 0.99956 -0.0283365  
     length 1.81545  
     axis 0 0 0   XYZ
    dof rx ry rz
    limits (-20.0 45.0)
           (-30.0 30.0)
           (-30.0 30.0)
  end
  begin
     id 17 
     name lclavicle
     direction 0.840411 0.486876 -0.238035  
     length 3.30409  
     axis 0 0 0   XYZ
    dof ry rz
    limits (-20.0 10.0)
           (0.0 20.0)
  end
  begin
     id 18 
     name lhumerus
     direction 1 -4.48977e-011 -5.16239e-027   
     length 4.62672   
     axis 180 -30 -90   XYZ
    dof rx ry rz
    limits (-60.0 90.0)
           (-90.0 90.0)
           (-90.0 90.0)
  end
  begin
     id 19
     name lradius
     direction 1 -4.48977e-011 -8.71171e-027   
     length 3.11018   
     axis 180 -30 -90   XYZ
    dof rx
    limits (-10.0 170.0)
  end
  begin
     id 20
     name lwrist
     direction 1 -4.48912e-011 -1.03764e-026   
     length 1.55509   
     axis 9.09556e-015 90 90   XYZ
    dof ry
    limits (-180.0 0.0)
 end
  begin
     id 21 
     name lhand
     direction 1 -4.49072e-011 -2.07528e-026   
     length 0.743834   
     axis 1.3242e-014 90 90   XYZ
    dof rx rz
    limits (-90.0 90.0)
           (-45.0 45.0)
  end
  begin
     id 22 
     name lfingers
     direction 1 -4.48909e-011 -4.15056e-026   
     length 0.599698   
     axis 2.64841e-014 90 90   XYZ
    dof rx
    limits (0.0 90.0)
  end
  begin
     id 23
     name lthumb
     direction 0.707107 -6.35013e-011 0.707107   
     length 0.86105   
     axis -90 45 2.85299e-015   XYZ
    dof rx rz
    limits (-45.0 45.0)
           (-45.0 45.0)
  end
  begin
     id 24 
     name rclavicle
     direction -0.835208 0.500237 -0.228452   
     length 3.2716  
     axis 0 0 0   XYZ 
    dof ry rz
    limits (-10.0 20.0)
           (-20.0 0.0)
  end
  begin
     id 25 
     name rhumerus
     direction -1 -4.48978e-011 -5.1953e-028  
     length 4.55919   
     axis 180 30 90   XYZ
    dof rx ry rz
    limits (-90.0 60.0)
           (-90.0 90.0)
           (-90.0 90.0)
  end
  begin
     id 26 
     name rradius
     direction -1 -4.48961e-011 -5.99546e-027   
     length 3.22748   
     axis 180 30 90   XYZ
    dof rx
    limits (-10.0 170.0)
  end
  begin
     id 27 
     name rwrist
     direction -1 -4.48986e-011 -1.03764e-026   
     length 1.61374   
     axis 9.09556e-015 -90 -90   XYZ
    dof ry
    limits (-180.0 0.0)
  end
  begin
     id 28
     name rhand
     direction -1 -4.4899e-011 -2.07528e-026   
     length 0.700882   
     axis 1.3242e-014 -90 -90   XYZ
    dof rx rz
    limits (-90.0 90.0)
           (-45.0 45.0)
  end
  begin
     id 29
     name rfingers
     direction -1 -4.48991e-011 -4.15056e-026   
     length 0.565069   
     axis 2.64841e-014 -90 -90   XYZ
    dof rx
    limits (0.0 90.0)
  end
  begin
     id 30
     name rthumb
     direction -0.707107 -6.34804e-011 0.707107   
     length 0.811329   
     axis -90 -45 -2.85299e-015   XYZ
    dof rx rz
    limits (-45.0 45.0)
           (-45.0 45.0)
  end
:hierarchy
  begin
    root lhipjoint rhipjoint lowerback
    lhipjoint lfemur
    lfemur ltibia
    ltibia lfoot
    lfoot ltoes
    rhipjoint rfemur
    rfemur rtibia
    rtibia rfoot
    rfoot rtoes
    lowerback upperback
    upperback thorax
    thorax lowerneck lclavicle rclavicle
    lowerneck upperneck
    upperneck head
    lclavicle lhumerus
    lhumerus lradius
    lradius lwrist
    lwrist lhand lthumb
    lhand lfingers
    rclavicle rhumerus
    rhumerus rradius
    rradius rwrist
    rwrist rhand rthumb
    rhand rfingers
  end

#!OML:ASF F:\VICON\USERDATA\INSTALL\SteveWalk\SteveWalk.ASF
:FULLY-SPECIFIED
:DEGREES
253
root -0.466713 16.4825 6.48294 16.289 3.95913 -1.21766
lowerback -14.4382 -0.551897 2.2731
upperback -5.71107 -1.09678 2.20413
thorax 2.06666 -0.547205 0.845264
lowerneck -3.50081 -0.88853 -0.0139383
upperneck 11.3049 -0.969463 -2.07392
head 4.32851 -0.576908 -0.740609
rclavicle 8.97016e-015 1.51076e-014
rhumerus -36.1031 -13.4097 -77.1998
rradius 29.4967
rwrist -4.9697
rhand -16.8743 -35.8753
rfingers 7.12502
rthumb 9.35659 -65.6476
lclavicle 8.97016e-015 1.51076e-014
lhumerus -36.5584 2.06689 87.7642
lradius 21.5916
lwrist -7.13177
lhand -21.4819 -21.5491
lfingers 7.12502
lthumb 4.90909 8.37399
rfemur -31.2112 -4.65389 28.0068
rtibia 35.2141
rfoot -21.2578 4.63963
rtoes -6.14288
lfemur -39.9778 0.828789 -18.863
ltibia 74.2727
lfoot -3.42445 -1.04238
ltoes -14.248
254
root -0.471858 16.4809 6.66586 16.2705 3.63664 -0.923604
lowerback -14.3956 -0.529858 1.86251
upperback -5.72216 -1.00755 2.08058
thorax 2.03818 -0.499861 0.962082
lowerneck -3.50723 -0.906911 -0.0287215
upperneck 11.5267 -0.992219 -2.05027
head 4.41016 -0.588891 -0.73358
rclavicle -1.14301e-015 -2.78299e-014
rhumerus -35.4088 -12.0017 -78.1965
rradius 31.0457
rwrist -6.1745
rhand -16.8886 -35.541
rfingers 7.12502
rthumb 9.3428 -65.314
lclavicle -1.14301e-015 -2.78299e-014
lhumerus -37.1162 3.78375 86.7752
lradius 20.0115
lwrist -9.77497
lhand -21.5765 -22.1271
lfingers 7.12502
lthumb 4.81769 7.79815
rfemur -30.3767 -4.58446 27.6436
rtibia 35.1015
rfoot -21.8194 4.70381
rtoes -5.65916
lfemur -41.018 0.926563 -19.3113
ltibia 73.4336
lfoot -4.23142 -0.346273
ltoes -14.6303
255
root -0.466126 16.4776 6.85482 16.3035 3.56198 -1.01053
lowerback -14.6122 -0.495824 2.03384
upperback -5.67664 -0.993118 2.03939
thorax 2.19766 -0.493855 0.822549
lowerneck -3.47498 -0.92347 0.0775358
upperneck 11.5579 -1.00916 -2.17077
head 4.41399 -0.598492 -0.79396
rclavicle 4.69629e-015 1.59028e-014
rhumerus -34.6858 -10.705 -79.0811
rradius 32.6097
rwrist -7.21177
rhand -16.6657 -35.1421
rfingers 7.12502
rthumb 9.55793 -64.9053
lclavicle 4.69629e-015 1.59028e-014
lhumerus -37.634 5.51207 85.6813
lradius 18.7577
lwrist -12.236
lhand -21.1718 -21.9294
lfingers 7.12502
lthumb 5.20843 7.98659
rfemur -29.5744 -4.99835 27.7591
rtibia 35.0183
rfoot -22.4454 5.17405
rtoes -5.28385
lfemur -42.0953 0.820615 -19.3041
ltibia 72.3997
lfoot -4.95923 0.285105
ltoes -15.2504
256
root -0.458476 16.4682 7.03805 16.3998 3.51347 -1.03583
lowerback -14.7225 -0.48042 2.14455
upperback -5.66838 -0.990688 1.9955
thorax 2.26236 -0.493744 0.713607
lowerneck -3.41474 -0.869081 0.0917314
upperneck 11.4756 -0.942356 -2.13619
head 4.37291 -0.562559 -0.780086
rclavicle -2.96935e-015 -1.59028e-015
rhumerus -33.9891 -9.36155 -79.9144
rradius 34.2102
rwrist -8.2945
rhand -17.1813 -33.1232
rfingers 7.12502
rthumb 9.06038 -62.9086
lclavicle -2.96935e-015 -1.59028e-015
lhumerus -38.1871 7.09264 84.6348
lradius 17.7121
lwrist -14.2822
lhand -20.1393 -21.0046
lfingers 7.12502
lthumb 6.20535 8.88448
rfemur -28.8954 -5.51074 27.8158
rtibia 34.9245
rfoot -23.0474 5.7386
rtoes -4.3168
lfemur -43.121 0.62174 -19.3528
ltibia 71.1757
lfoot -5.69522 0.96127
ltoes -17.0588
257
root -0.450453 16.4592 7.22368 16.5301 3.16632 -0.652193
lowerback -14.8758 -0.443073 1.77653
upperback -5.65126 -0.89174 1.85822
thorax 2.36663 -0.441683 0.792393
lowerneck -3.40902 -0.796564 -0.0198632
upperneck 11.4524 -0.853901 -1.97723
head 4.36524 -0.515991 -0.702197
rclavicle 1.16165e-014 -5.56597e-015
rhumerus -33.398 -8.02371 -80.6285
rradius 35.9651
rwrist -9.61631
rhand -18.2139 -31.6932
rfingers 7.12502
rthumb 8.06389 -61.5194
lclavicle 1.16165e-014 -5.56597e-015
lhumerus -38.8798 8.89588 83.4242
lradius 16.799
lwrist -16.8011
lhand -19.2807 -20.4099
lfingers 7.12502
lthumb 7.03422 9.45324
rfemur -28.2508 -5.91681 27.3621
rtibia 34.8014
rfoot -23.6127 6.3911
rtoes -3.38326
lfemur -43.9887 0.556422 -19.9506
ltibia 69.7144
lfoot -6.19086 1.69818
ltoes -17.3035
258
root -0.444825 16.4588 7.41959 16.5358 2.67714 -0.52229
lowerback -15.1293 -0.312451 1.63451
upperback -5.52898 -0.707049 1.7523
thorax 2.63078 -0.348175 0.790519
lowerneck -3.56583 -0.798974 0.0150972
upperneck 11.541 -0.859654 -1.95898
head 4.4288 -0.517599 -0.70479
rclavicle 1.98909e-014 -5.56597e-015
rhumerus -32.8593 -6.99077 -81.1862
rradius 37.8474
rwrist -10.336
rhand -18.7753 -31.3117
rfingers 7.12502
rthumb 7.522 -61.158
lclavicle 1.98909e-014 -5.56597e-015
lhumerus -39.5935 10.8371 81.9463
lradius 15.9852
lwrist -19.7115
lhand -18.4369 -20.0438
lfingers 7.12502
lthumb 7.84865 9.79048
rfemur -27.4193 -6.0707 27.1023
rtibia 34.6666
rfoot -24.2149 7.08931
rtoes -2.36087
lfemur -44.6923 0.703203 -20.28
ltibia 68.0407
lfoot -5.98791 2.06734
ltoes -12.029
259
root -0.450031 16.4501 7.6022 16.6007 2.39754 -0.755689
lowerback -15.185 -0.212435 1.72482
upperback -5.50714 -0.591396 1.76524
thorax 2.6822 -0.291168 0.772541
lowerneck -3.69534 -0.821332 0.218476
upperneck 11.6428 -0.888525 -2.09581
head 4.49065 -0.530708 -0.790864
rclavicle -7.82715e-016 7.95139e-016
rhumerus -32.4742 -6.05779 -81.6685
rradius 39.7714
rwrist -10.3754
rhand -18.5591 -31.1894
rfingers 7.12502
rthumb 7.73071 -61.0281
lclavicle -7.82715e-016 7.95139e-016
lhumerus -40.2829 12.7693 80.3114
lradius 15.1158
lwrist -22.6247
lhand -18.1447 -20.6216
lfingers 7.12502
lthumb 8.13066 9.20199
rfemur -26.6883 -5.93679 27.2933
rtibia 34.4948
rfoot -24.7041 7.35318
rtoes -1.72273
lfemur -45.6287 0.774459 -20.0526
ltibia 66.2295
lfoot -6.94223 2.98281
ltoes -9.85
260
root -0.448431 16.4341 7.78073 16.7519 2.33851 -0.881565
lowerback -15.1863 -0.196624 1.83565
upperback -5.56761 -0.585251 1.76819
thorax 2.61791 -0.289498 0.71425
lowerneck -3.55348 -0.760521 0.362507
upperneck 11.5041 -0.808078 -2.20641
head 4.41215 -0.488837 -0.847062
rclavicle 9.81499e-016 9.93923e-015
rhumerus -32.0469 -4.92892 -82.1407
rradius 41.4793
rwrist -10.8921
rhand -17.887 -31.6726
rfingers 7.12502
rthumb 8.37936 -61.4864
lclavicle 9.81499e-016 9.93923e-015
lhumerus -41.0612 14.2805 78.9384
lradius 14.4308
lwrist -24.8292
lhand -19.0792 -22.2279
lfingers 7.12502
lthumb 7.22869 7.62859
rfemur -26.0495 -6.35893 27.4666
rtibia 34.2446
rfoot -25.1742 7.87633
rtoes -0.876517
lfemur -46.5659 0.590527 -19.9119
ltibia 64.2004
lfoot -7.68476 3.59349
ltoes -8.07884
261
root -0.434642 16.4236 7.96774 16.8312 2.19787 -0.926506
lowerback -15.1059 -0.129522 2.05004
upperback -5.65895 -0.520807 1.71662
thorax 2.47606 -0.26099 0.550622
lowerneck -3.40878 -0.712089 0.304645
upperneck 11.4464 -0.748998 -2.12136
head 4.36321 -0.457187 -0.803294
rclavicle 7.05686e-015 1.59028e-015
rhumerus -31.7701 -3.69206 -82.6017
rradius 43.2773
rwrist -12.268
rhand -17.7564 -31.6507
rfingers 7.12502
rthumb 8.50544 -61.4594
lclavicle 7.05686e-015 1.59028e-015
lhumerus -42.0782 15.3271 77.8461
lradius 14.1121
lwrist -26.1474
lhand -18.6442 -21.7429
lfingers 7.12502
lthumb 7.64858 8.09877
rfemur -25.2888 -7.23902 27.5134
rtibia 33.953
rfoot -25.7811 8.93031
rtoes 0.639838
lfemur -47.157 0.445785 -19.9597
ltibia 61.9175
lfoot -7.97342 4.21039
ltoes -8.02453
262
root -0.430019 16.4154 8.14855 16.9191 1.79796 -0.962416
lowerback -14.9832 0.0209446 2.04585
upperback -5.7147 -0.315677 1.68085
thorax 2.35269 -0.160495 0.55015
lowerneck -3.67447 -0.743438 0.195471
upperneck 11.6798 -0.790338 -2.01378
head 4.50151 -0.479413 -0.754331
rclavicle -9.23106e-015 6.36111e-015
rhumerus -31.5604 -2.58409 -82.9845
rradius 45.359
rwrist -13.805
rhand -18.0302 -31.6249
rfingers 7.12502
rthumb 8.24122 -61.4441
lclavicle -9.23106e-015 6.36111e-015
lhumerus -43.0389 15.7064 77.2554
lradius 14.0162
lwrist -26.7167
lhand -14.0296 -16.9587
lfingers 7.12502
lthumb 12.1005 12.6714
rfemur -24.5278 -7.49947 27.4557
rtibia 33.6462
rfoot -26.2446 9.63307
rtoes 1.97715
lfemur -47.6322 0.533297 -20.0396
ltibia 59.3806
lfoot -8.10552 4.87477
ltoes -8.5959
263
root -0.429583 16.4086 8.33491 16.9558 0.965909 -0.871065
lowerback -15.0802 0.273306 1.76924
upperback -5.58866 0.0517266 1.59225
thorax 2.53908 0.0249084 0.675536
lowerneck -4.00632 -0.80621 0.0967091
upperneck 11.786 -0.875149 -1.91639
head 4.60706 -0.522646 -0.712079
rclavicle -4.74598e-015 -2.38542e-015
rhumerus -31.0315 -1.63668 -83.2547
rradius 47.2816
rwrist -14.7345
rhand -17.4952 -33.9929
rfingers 7.12502
rthumb 8.75746 -63.7912
lclavicle -4.74598e-015 -2.38542e-015
lhumerus -43.7199 15.8764 76.8344
lradius 13.6472
lwrist -27.8437
lhand -14.2526 -17.0939
lfingers 7.12502
lthumb 11.8856 12.5487
rfemur -23.6443 -7.35683 27.1506
rtibia 33.3011
rfoot -26.74 9.88613
rtoes 1.74897
lfemur -47.862 0.858788 -20.2921
ltibia 56.5834
lfoot -8.49583 5.63702
ltoes -9.84022
264
root -0.42016 16.3968 8.53684 16.9535 0.127747 -0.684203
lowerback -15.2834 0.475672 1.54285
upperback -5.47869 0.346398 1.45749
thorax 2.76329 0.172585 0.71457
lowerneck -3.97641 -0.808628 -0.000432779
upperneck 11.6685 -0.887742 -1.7808
head 4.55845 -0.525807 -0.648036
rclavicle -7.78987e-015 7.15625e-015
rhumerus -30.5365 -0.700982 -83.5051
rradius 48.9564
rwrist -15.2259
rhand -16.2167 -37.3114
rfingers 7.12502
rthumb 9.99112 -67.0542
lclavicle -7.78987e-015 7.15625e-015
lhumerus -44.3593 15.9882 76.4959
lradius 13.6954
lwrist -27.0785
lhand -12.1673 -15.6421
lfingers 7.12502
lthumb 13.8958 13.8736
rfemur -22.6181 -7.74374 26.7316
rtibia 32.9467
rfoot -27.6182 10.043
rtoes -0.549033
lfemur -47.8559 1.14938 -20.655
ltibia 53.595
lfoot -9.00951 6.59253
ltoes -9.28337
265
root -0.409404 16.3757 8.7313 17.0159 -0.0963681 -0.667805
lowerback -15.2776 0.505645 1.59538
upperback -5.55857 0.382198 1.38898
thorax 2.67677 0.188722 0.618763
lowerneck -3.80418 -0.703 -0.0302799
upperneck 11.594 -0.765084 -1.60118
head 4.49813 -0.456899 -0.573674
rclavicle -1.37534e-014 -1.74931e-014
rhumerus -30.3634 0.281947 -83.8411
rradius 50.6783
rwrist -16.0777
rhand -15.8957 -37.904
rfingers 7.12502
rthumb 10.3008 -67.6317
lclavicle -1.37534e-014 -1.74931e-014
lhumerus -45.3865 15.9097 76.163
lradius 13.9064
lwrist -26.0996
lhand -10.9346 -14.8451
lfingers 7.12502
lthumb 15.0835 14.5854
rfemur -21.6129 -8.59467 26.6259
rtibia 32.4956
rfoot -28.6499 10.0542
rtoes -4.295
lfemur -47.9231 1.13195 -20.7248
ltibia 50.4577
lfoot -9.15735 7.3975
ltoes -6.53542
266
root -0.411589 16.357 8.89862 17.1808 0.0341932 -0.868593
lowerback -15.0072 0.473587 1.70473
upperback -5.7119 0.333997 1.42449
thorax 2.3715 0.162566 0.58276
lowerneck -3.78366 -0.639765 -0.0781137
upperneck 11.5548 -0.701371 -1.38005
head 4.48084 -0.416517 -0.48685
rclavicle 8.53532e-015 1.35174e-014
rhumerus -30.2322 1.30609 -84.1631
rradius 52.553
rwrist -17.3379
rhand -17.0028 -34.9773
rfingers 7.12502
rthumb 9.23265 -64.7551
lclavicle 8.53532e-015 1.35174e-014
lhumerus -46.3226 15.4005 76.2126
lradius 14.3934
lwrist -24.6033
lhand -9.89864 -14.2817
lfingers 7.12502
lthumb 16.0812 15.071
rfemur -20.8301 -9.10872 26.8664
rtibia 32.0492
rfoot -29.5123 9.71189
rtoes -8.12506
lfemur -48.219 1.04026 -20.4775
ltibia 47.1814
lfoot -9.03614 7.79146
ltoes -5.92477
267
root -0.403407 16.3521 9.09753 17.0954 -0.56562 -1.13307
lowerback -15.016 0.694229 1.89103
upperback -5.60925 0.593778 1.45314
thorax 2.48575 0.290683 0.551912
lowerneck -3.66735 -0.612588 -0.0637115
upperneck 11.3012 -0.667623 -1.39393
head 4.36533 -0.398619 -0.489786
rclavicle 3.23025e-016 1.59028e-015
rhumerus -29.9741 2.37563 -84.3422
rradius 54.2218
rwrist -18.6153
rhand -17.6809 -35.3322
rfingers 7.12502
rthumb 8.57832 -65.1379
lclavicle 3.23025e-016 1.59028e-015
lhumerus -47.0825 15.2632 76.0788
lradius 14.6764
lwrist -24.1292
lhand -9.1273 -14.0436
lfingers 7.12502
lthumb 16.8239 15.2475
rfemur -19.6206 -9.22825 26.847
rtibia 31.434
rfoot -30.0164 10.2054
rtoes -9.05041
lfemur -47.9808 1.22251 -20.214
ltibia 43.8181
lfoot -9.29427 8.41072
ltoes -7.59532
